<?xml version="1.0" encoding="utf-8"?>
<!-- Generator: Adobe Illustrator 25.2.0, SVG Export Plug-In . SVG Version: 6.00 Build 0)  -->
<svg version="1.1" xmlns="http://www.w3.org/2000/svg" xmlns:xlink="http://www.w3.org/1999/xlink" x="0px" y="0px"
	 viewBox="0 0 194.5 83.5" style="enable-background:new 0 0 194.5 83.5;" xml:space="preserve">
<style type="text/css">
	.st0{fill:#EDEDED;}
	.st1{fill:#F4F4F4;}
</style>
<g id="Layer_2">
</g>
<g id="Layer_1">
	<g id="Layer_1_1_">
	</g>
	<g>
		<path class="st0" d="M104,27.6h3.4v24.3h12.7v3H104V27.6z"/>
		<path class="st0" d="M131.5,34.6c6,0,9.5,4.7,9.5,10.6V46h-16c0.2,3.7,2.9,6.8,7.1,6.8c2.3,0,4.6-0.9,6.1-2.5l1.5,2
			c-2,2-4.6,3-7.9,3c-5.9,0-10.1-4.2-10.1-10.4C121.8,39.3,125.9,34.6,131.5,34.6z M125,43.8h13c0-3-2-6.6-6.5-6.6
			C127.2,37.2,125.2,40.7,125,43.8z"/>
		<path class="st0" d="M157.3,52.7c-1.6,1.8-3.9,2.7-6.6,2.7c-3.4,0-6.9-2.3-6.9-6.6c0-4.4,3.6-6.5,6.9-6.5c2.7,0,5,0.9,6.6,2.7
			v-3.6c0-2.7-2.1-4.2-5-4.2c-2.4,0-4.3,0.9-6.1,2.7l-1.4-2.1c2.1-2.2,4.7-3.3,7.9-3.3c4.2,0,7.7,1.9,7.7,6.7v13.6h-3.1L157.3,52.7
			L157.3,52.7z M157.3,47c-1.2-1.6-3.3-2.5-5.5-2.5c-2.9,0-4.9,1.8-4.9,4.3s2,4.3,4.9,4.3c2.2,0,4.3-0.8,5.5-2.5V47z"/>
		<path class="st0" d="M165.5,35.1h3.1v3.2c1.6-2.1,3.9-3.6,6.6-3.6v3.2c-0.4-0.1-0.7-0.1-1.2-0.1c-1.9,0-4.5,1.6-5.4,3.2v14h-3.1
			L165.5,35.1L165.5,35.1z"/>
		<path class="st0" d="M191.4,42c0-3.5-1.8-4.6-4.4-4.6c-2.4,0-4.7,1.5-5.9,3.1V55H178V35.1h3.1V38c1.4-1.6,4.1-3.4,7.1-3.4
			c4.1,0,6.3,2.1,6.3,6.4v13.9h-3.1L191.4,42L191.4,42z"/>
	</g>
	<path class="st0" d="M42,0h-0.2C18.7,0,0,18.7,0,41.8c0,23,18.7,41.7,41.8,41.7l0.1,0.1c23-0.1,41.7-18.8,41.7-41.8S64.9,0.1,42,0z
		 M67,67c-6.5,6.5-15.4,10.5-25.2,10.5C22,77.6,6,61.6,6,41.8c0-9.9,4-18.8,10.5-25.3C23,10,31.9,6,41.8,6c19.7,0,35.7,16,35.7,35.8
		C77.5,51.7,73.5,60.6,67,67z"/>
	<path class="st1" d="M62.2,42.1c0.3-11.3-8.6-20.7-19.9-21c-0.2,0-0.4,0-0.6,0c-5.3,0-10.4,2.1-14.2,5.8s-6,8.7-6.2,14.1
		c-0.1,5.5,1.8,10.6,5.6,14.6c3.7,3.9,8.8,6.2,14.3,6.3l18.2,0.5c0.9,0,1.7-0.8,1.8-1.7c0-0.5-0.2-0.9-0.5-1.3
		c-0.3-0.3-0.8-0.5-1.2-0.6l-18.1-0.5c-9.3-0.3-16.6-8-16.3-17.3c0.1-4.4,1.9-8.6,5.1-11.7c3.1-3.1,7.3-4.8,11.7-4.8
		c0.2,0,0.3,0,0.5,0c9.3,0.3,16.6,8,16.4,17.3c-0.1,4.5-2,8.7-5.2,11.8c-0.7,0.6-0.7,1.6-0.2,2.4v0.1c0.6,0.8,1.8,0.9,2.5,0.2
		C59.7,52.7,62,47.6,62.2,42.1z"/>
</g>
</svg>
